<?xml version="1.0" standalone="no"?>
<svg viewBox="0 0 200 200" xmlns="http://www.w3.org/2000/svg">
  <path fill="#B2BABB" d="M38.2,-60.8C51.8,-50.8,66.5,-43.9,72.6,-32.6C78.6,-21.2,76,-5.3,70.8,8.1C65.6,21.5,57.8,32.4,48.7,41.4C39.6,50.5,29.3,57.6,17.3,63.2C5.2,68.7,-8.6,72.5,-20.7,69.4C-32.8,66.4,-43.2,56.4,-52.9,45.6C-62.5,34.8,-71.4,23.2,-76.9,8.9C-82.3,-5.5,-84.4,-22.5,-78.2,-35.7C-72.1,-48.9,-57.8,-58.3,-43.4,-67.8C-29,-77.4,-14.5,-87.2,-1.1,-85.5C12.3,-83.9,24.7,-70.7,38.2,-60.8Z" transform="translate(100 100)" />
</svg>
